<svg xmlns="http://www.w3.org/2000/svg" xmlns:xlink="http://www.w3.org/1999/xlink" width="500" zoomAndPan="magnify" viewBox="0 0 375 233.04" height="300" preserveAspectRatio="xMidYMid meet" version="1.0"><defs><g/><clipPath id="cdc86aa6c2"><path d="M 9.179688 35.441406 L 95 35.441406 L 95 119 L 9.179688 119 Z M 9.179688 35.441406 " clip-rule="nonzero"/></clipPath><clipPath id="8bffdd866f"><path d="M 26 60 L 117.484375 60 L 117.484375 143.746094 L 26 143.746094 Z M 26 60 " clip-rule="nonzero"/></clipPath><clipPath id="e680319145"><path d="M 9.179688 55 L 75 55 L 75 119 L 9.179688 119 Z M 9.179688 55 " clip-rule="nonzero"/></clipPath><clipPath id="50a0d23942"><rect x="0" width="242" y="0" height="146"/></clipPath><clipPath id="4dbe19c931"><rect x="0" width="354" y="0" height="37"/></clipPath></defs><g clip-path="url(#cdc86aa6c2)"><path fill="#ffa602" d="M 94.039062 35.453125 L 94.039062 55.441406 C 90.65625 51.632812 86.335938 48.628906 81.132812 46.402344 C 75.929688 44.199219 70.160156 43.101562 63.910156 43.101562 C 57.710938 43.101562 52.238281 44.148438 47.492188 46.214844 C 42.742188 48.304688 39.039062 51.308594 36.355469 55.308594 C 33.671875 59.304688 32.359375 64.054688 32.359375 69.554688 C 32.359375 74.140625 33.109375 77.925781 34.640625 80.929688 C 36.167969 83.933594 38.179688 86.429688 40.675781 88.441406 C 43.171875 90.425781 45.90625 92.089844 48.886719 93.402344 C 51.863281 94.71875 54.839844 95.871094 57.847656 96.890625 C 60.851562 97.910156 63.613281 98.984375 66.109375 100.085938 C 68.605469 101.183594 70.617188 102.5 72.144531 104.027344 C 73.675781 105.558594 74.425781 107.542969 74.425781 110.011719 C 74.425781 112.71875 73.273438 114.839844 70.9375 116.371094 C 68.605469 117.898438 65.332031 118.648438 61.09375 118.648438 C 56.425781 118.648438 52.347656 117.738281 48.804688 115.914062 C 45.289062 114.089844 42.070312 111.511719 39.199219 108.214844 L 19.1875 108.214844 C 13.660156 108.242188 9.179688 103.761719 9.179688 98.234375 L 9.179688 35.453125 Z M 94.039062 35.453125 " fill-opacity="1" fill-rule="nonzero"/></g><g clip-path="url(#8bffdd866f)"><path fill="#222222" d="M 117.109375 78.300781 L 117.109375 143.359375 L 26.242188 143.359375 L 26.242188 121.0625 C 30.640625 125.972656 35.5 129.648438 40.808594 132.0625 C 46.09375 134.476562 52.453125 135.6875 59.832031 135.6875 C 70.589844 135.6875 79.039062 133.246094 85.128906 128.363281 C 91.246094 123.480469 94.277344 116.773438 94.277344 108.214844 C 94.277344 103.546875 93.527344 99.628906 92 96.4375 C 90.46875 93.242188 88.457031 90.640625 85.960938 88.546875 C 83.46875 86.484375 80.730469 84.765625 77.753906 83.398438 C 74.960938 82.109375 72.144531 80.984375 69.300781 80.015625 C 69.140625 79.964844 68.953125 79.910156 68.792969 79.828125 C 65.789062 78.808594 63.023438 77.789062 60.527344 76.769531 C 58.035156 75.75 56.023438 74.542969 54.492188 73.148438 C 52.964844 71.753906 52.210938 69.902344 52.210938 67.621094 C 52.210938 65.152344 53.230469 63.277344 55.269531 61.960938 C 57.308594 60.648438 60.074219 60.003906 63.535156 60.003906 C 67.019531 60.003906 70.132812 60.671875 72.871094 62.042969 C 75.632812 63.410156 78.371094 65.476562 81.078125 68.265625 L 107.101562 68.265625 C 112.628906 68.292969 117.109375 72.773438 117.109375 78.300781 Z M 117.109375 78.300781 " fill-opacity="1" fill-rule="nonzero"/></g><g clip-path="url(#e680319145)"><path fill="#ffa602" d="M 74.453125 110.011719 C 74.453125 112.71875 73.300781 114.839844 70.964844 116.371094 C 68.632812 117.898438 65.359375 118.648438 61.117188 118.648438 C 56.449219 118.648438 52.375 117.738281 48.832031 115.914062 C 45.316406 114.089844 42.097656 111.511719 39.226562 108.214844 L 19.1875 108.214844 C 13.660156 108.242188 9.179688 103.761719 9.179688 98.234375 L 9.179688 93.804688 L 36.355469 55.335938 C 33.671875 59.332031 32.359375 64.082031 32.359375 69.582031 C 32.359375 74.167969 33.109375 77.949219 34.640625 80.957031 C 36.167969 83.960938 38.179688 86.457031 40.675781 88.46875 C 43.171875 90.453125 45.90625 92.117188 48.886719 93.429688 C 51.863281 94.746094 54.839844 95.898438 57.847656 96.917969 C 60.851562 97.9375 63.613281 99.011719 66.109375 100.109375 C 68.605469 101.210938 70.617188 102.527344 72.144531 104.054688 C 73.703125 105.558594 74.453125 107.570312 74.453125 110.011719 Z M 74.453125 110.011719 " fill-opacity="1" fill-rule="nonzero"/></g><g transform="matrix(1, 0, 0, 1, 116, 38)"><g clip-path="url(#50a0d23942)"><g fill="#222222" fill-opacity="1"><g transform="translate(1.112116, 105.499936)"><g><path d="M 31.90625 -87.078125 L 31.90625 -62.359375 L 67.390625 -62.359375 L 67.390625 -45.6875 L 31.90625 -45.6875 L 31.90625 -16.671875 L 82.328125 -16.671875 L 82.328125 0 L 12.0625 0 L 12.0625 -103.75 L 80.75 -103.75 L 80.75 -87.078125 Z M 31.90625 -87.078125 "/></g></g></g><g fill="#222222" fill-opacity="1"><g transform="translate(88.896643, 105.499936)"><g><path d="M 11.0625 0 L 11.0625 -103.75 L 28.875 -103.75 L 28.875 0 Z M 11.0625 0 "/></g></g></g><g fill="#222222" fill-opacity="1"><g transform="translate(128.837885, 105.499936)"><g><path d="M 11.0625 0 L 11.0625 -103.75 L 28.875 -103.75 L 28.875 0 Z M 11.0625 0 "/></g></g></g><g fill="#222222" fill-opacity="1"><g transform="translate(168.779128, 105.499936)"><g><path d="M 68.390625 -37.359375 C 68.390625 -25.484375 65.492188 -16.046875 59.703125 -9.046875 C 53.910156 -2.054688 45.984375 1.4375 35.921875 1.4375 C 29.304688 1.4375 23.554688 -0.140625 18.671875 -3.296875 C 13.785156 -6.460938 10.023438 -10.96875 7.390625 -16.8125 C 4.765625 -22.65625 3.453125 -29.503906 3.453125 -37.359375 C 3.453125 -49.429688 6.394531 -58.914062 12.28125 -65.8125 C 18.175781 -72.707031 26.054688 -76.15625 35.921875 -76.15625 C 45.984375 -76.15625 53.910156 -72.707031 59.703125 -65.8125 C 65.492188 -58.914062 68.390625 -49.429688 68.390625 -37.359375 Z M 35.921875 -12.9375 C 40.898438 -12.9375 44.585938 -14.898438 46.984375 -18.828125 C 49.378906 -22.753906 50.578125 -28.929688 50.578125 -37.359375 C 50.578125 -45.597656 49.378906 -51.726562 46.984375 -55.75 C 44.585938 -59.769531 40.898438 -61.78125 35.921875 -61.78125 C 30.847656 -61.78125 27.132812 -59.742188 24.78125 -55.671875 C 22.4375 -51.609375 21.265625 -45.503906 21.265625 -37.359375 C 21.265625 -28.929688 22.460938 -22.753906 24.859375 -18.828125 C 27.253906 -14.898438 30.941406 -12.9375 35.921875 -12.9375 Z M 35.921875 -12.9375 "/></g></g></g></g></g><g transform="matrix(1, 0, 0, 1, 12, 142)"><g clip-path="url(#4dbe19c931)"><g fill="#222222" fill-opacity="1"><g transform="translate(0.411796, 28.778544)"><g><path d="M 1.3125 -17.046875 C 1.3125 -17.585938 1.488281 -17.984375 1.84375 -18.234375 C 2.195312 -18.492188 2.585938 -18.625 3.015625 -18.625 C 3.441406 -18.625 3.832031 -18.492188 4.1875 -18.234375 C 4.550781 -17.984375 4.734375 -17.585938 4.734375 -17.046875 L 4.734375 -1.484375 C 4.734375 -1.003906 4.550781 -0.632812 4.1875 -0.375 C 3.832031 -0.125 3.441406 0 3.015625 0 C 2.585938 0 2.195312 -0.117188 1.84375 -0.359375 C 1.488281 -0.609375 1.3125 -0.984375 1.3125 -1.484375 Z M 1.3125 -17.046875 "/></g></g></g><g fill="#222222" fill-opacity="1"><g transform="translate(7.863948, 28.778544)"><g><path d="M 0.203125 -4.421875 C 0.0664062 -4.984375 0.203125 -5.425781 0.609375 -5.75 C 1.023438 -6.082031 1.484375 -6.25 1.984375 -6.25 C 2.378906 -6.25 2.726562 -6.15625 3.03125 -5.96875 C 3.332031 -5.789062 3.519531 -5.503906 3.59375 -5.109375 C 3.8125 -4.492188 4.21875 -4.015625 4.8125 -3.671875 C 5.40625 -3.328125 6.070312 -3.09375 6.8125 -2.96875 C 7.550781 -2.84375 8.242188 -2.78125 8.890625 -2.78125 C 9.390625 -2.78125 9.941406 -2.816406 10.546875 -2.890625 C 11.148438 -2.972656 11.722656 -3.113281 12.265625 -3.3125 C 12.816406 -3.519531 13.269531 -3.804688 13.625 -4.171875 C 13.976562 -4.546875 14.15625 -5.023438 14.15625 -5.609375 C 14.15625 -6.234375 13.894531 -6.691406 13.375 -6.984375 C 12.851562 -7.273438 12.191406 -7.484375 11.390625 -7.609375 C 10.597656 -7.742188 9.765625 -7.835938 8.890625 -7.890625 C 7.890625 -7.972656 6.890625 -8.09375 5.890625 -8.25 C 4.890625 -8.40625 3.972656 -8.65625 3.140625 -9 C 2.316406 -9.351562 1.648438 -9.863281 1.140625 -10.53125 C 0.628906 -11.207031 0.375 -12.101562 0.375 -13.21875 C 0.375 -14.207031 0.628906 -15.0625 1.140625 -15.78125 C 1.648438 -16.507812 2.3125 -17.101562 3.125 -17.5625 C 3.945312 -18.019531 4.832031 -18.359375 5.78125 -18.578125 C 6.738281 -18.804688 7.675781 -18.921875 8.59375 -18.921875 C 9.601562 -18.921875 10.664062 -18.800781 11.78125 -18.5625 C 12.894531 -18.332031 13.910156 -17.921875 14.828125 -17.328125 C 15.753906 -16.734375 16.441406 -15.898438 16.890625 -14.828125 C 17.046875 -14.273438 16.929688 -13.816406 16.546875 -13.453125 C 16.171875 -13.097656 15.734375 -12.921875 15.234375 -12.921875 C 14.921875 -12.921875 14.625 -12.992188 14.34375 -13.140625 C 14.0625 -13.285156 13.859375 -13.484375 13.734375 -13.734375 C 13.503906 -14.335938 13.097656 -14.785156 12.515625 -15.078125 C 11.929688 -15.378906 11.285156 -15.570312 10.578125 -15.65625 C 9.878906 -15.738281 9.226562 -15.78125 8.625 -15.78125 C 8.238281 -15.78125 7.773438 -15.738281 7.234375 -15.65625 C 6.703125 -15.582031 6.179688 -15.445312 5.671875 -15.25 C 5.160156 -15.0625 4.734375 -14.796875 4.390625 -14.453125 C 4.054688 -14.109375 3.890625 -13.6875 3.890625 -13.1875 C 3.890625 -12.5625 4.128906 -12.09375 4.609375 -11.78125 C 5.097656 -11.46875 5.75 -11.253906 6.5625 -11.140625 C 7.375 -11.023438 8.253906 -10.925781 9.203125 -10.84375 C 10.222656 -10.75 11.234375 -10.632812 12.234375 -10.5 C 13.234375 -10.375 14.144531 -10.148438 14.96875 -9.828125 C 15.789062 -9.515625 16.441406 -9.03125 16.921875 -8.375 C 17.410156 -7.71875 17.65625 -6.804688 17.65625 -5.640625 C 17.65625 -4.472656 17.375 -3.507812 16.8125 -2.75 C 16.257812 -1.988281 15.535156 -1.382812 14.640625 -0.9375 C 13.742188 -0.488281 12.789062 -0.171875 11.78125 0.015625 C 10.769531 0.203125 9.804688 0.296875 8.890625 0.296875 C 8.128906 0.296875 7.300781 0.222656 6.40625 0.078125 C 5.507812 -0.0664062 4.632812 -0.320312 3.78125 -0.6875 C 2.9375 -1.050781 2.191406 -1.535156 1.546875 -2.140625 C 0.898438 -2.742188 0.453125 -3.503906 0.203125 -4.421875 Z M 0.203125 -4.421875 "/></g></g></g><g fill="#222222" fill-opacity="1"><g transform="translate(27.764839, 28.778544)"><g/></g></g><g fill="#222222" fill-opacity="1"><g transform="translate(36.765792, 28.778544)"><g><path d="M 3.0625 -17.796875 L 8.453125 -10.46875 L 13.828125 -17.71875 C 14.046875 -17.988281 14.285156 -18.207031 14.546875 -18.375 C 14.804688 -18.539062 15.09375 -18.625 15.40625 -18.625 C 15.78125 -18.625 16.113281 -18.492188 16.40625 -18.234375 C 16.695312 -17.984375 16.875 -17.660156 16.9375 -17.265625 C 17.007812 -16.878906 16.890625 -16.472656 16.578125 -16.046875 L 10.171875 -7.484375 L 10.171875 -1.75 C 10.171875 -1.207031 9.984375 -0.78125 9.609375 -0.46875 C 9.242188 -0.15625 8.867188 0 8.484375 0 C 8.015625 0 7.613281 -0.15625 7.28125 -0.46875 C 6.945312 -0.78125 6.78125 -1.207031 6.78125 -1.75 L 6.78125 -7.484375 L 0.234375 -16.140625 C -0.0546875 -16.546875 -0.164062 -16.9375 -0.09375 -17.3125 C -0.03125 -17.695312 0.15625 -18.007812 0.46875 -18.25 C 0.78125 -18.5 1.128906 -18.625 1.515625 -18.625 C 2.160156 -18.625 2.675781 -18.347656 3.0625 -17.796875 Z M 3.0625 -17.796875 "/></g></g></g><g fill="#222222" fill-opacity="1"><g transform="translate(55.819237, 28.778544)"><g><path d="M 19.734375 -9.296875 C 19.734375 -7.390625 19.335938 -5.710938 18.546875 -4.265625 C 17.753906 -2.828125 16.644531 -1.707031 15.21875 -0.90625 C 13.800781 -0.101562 12.140625 0.296875 10.234375 0.296875 C 8.316406 0.296875 6.640625 -0.101562 5.203125 -0.90625 C 3.765625 -1.707031 2.644531 -2.828125 1.84375 -4.265625 C 1.039062 -5.710938 0.640625 -7.390625 0.640625 -9.296875 C 0.640625 -11.222656 1.039062 -12.90625 1.84375 -14.34375 C 2.644531 -15.789062 3.765625 -16.914062 5.203125 -17.71875 C 6.640625 -18.519531 8.316406 -18.921875 10.234375 -18.921875 C 12.140625 -18.921875 13.800781 -18.519531 15.21875 -17.71875 C 16.644531 -16.914062 17.753906 -15.789062 18.546875 -14.34375 C 19.335938 -12.90625 19.734375 -11.222656 19.734375 -9.296875 Z M 10.234375 -2.6875 C 11.460938 -2.6875 12.53125 -2.960938 13.4375 -3.515625 C 14.34375 -4.078125 15.046875 -4.851562 15.546875 -5.84375 C 16.054688 -6.84375 16.3125 -7.992188 16.3125 -9.296875 C 16.3125 -10.617188 16.054688 -11.773438 15.546875 -12.765625 C 15.046875 -13.765625 14.34375 -14.539062 13.4375 -15.09375 C 12.53125 -15.65625 11.460938 -15.9375 10.234375 -15.9375 C 9.003906 -15.9375 7.925781 -15.65625 7 -15.09375 C 6.070312 -14.539062 5.351562 -13.765625 4.84375 -12.765625 C 4.34375 -11.773438 4.09375 -10.617188 4.09375 -9.296875 C 4.09375 -7.992188 4.34375 -6.84375 4.84375 -5.84375 C 5.351562 -4.851562 6.070312 -4.078125 7 -3.515625 C 7.925781 -2.960938 9.003906 -2.6875 10.234375 -2.6875 Z M 10.234375 -2.6875 "/></g></g></g><g fill="#222222" fill-opacity="1"><g transform="translate(78.613144, 28.778544)"><g><path d="M 15.84375 -17.078125 C 15.84375 -17.597656 16.019531 -17.984375 16.375 -18.234375 C 16.738281 -18.492188 17.132812 -18.625 17.5625 -18.625 C 18.019531 -18.625 18.414062 -18.492188 18.75 -18.234375 C 19.09375 -17.984375 19.265625 -17.609375 19.265625 -17.109375 L 19.265625 -8.21875 C 19.265625 -6.519531 18.898438 -5.03125 18.171875 -3.75 C 17.441406 -2.476562 16.414062 -1.484375 15.09375 -0.765625 C 13.78125 -0.0546875 12.238281 0.296875 10.46875 0.296875 C 8.707031 0.296875 7.164062 -0.0546875 5.84375 -0.765625 C 4.519531 -1.484375 3.492188 -2.476562 2.765625 -3.75 C 2.035156 -5.03125 1.671875 -6.519531 1.671875 -8.21875 L 1.671875 -17.15625 C 1.671875 -17.644531 1.84375 -18.007812 2.1875 -18.25 C 2.539062 -18.5 2.929688 -18.625 3.359375 -18.625 C 3.804688 -18.625 4.207031 -18.5 4.5625 -18.25 C 4.925781 -18.007812 5.109375 -17.632812 5.109375 -17.125 L 5.109375 -8.21875 C 5.109375 -6.59375 5.597656 -5.28125 6.578125 -4.28125 C 7.554688 -3.28125 8.84375 -2.78125 10.4375 -2.78125 C 12.050781 -2.78125 13.351562 -3.28125 14.34375 -4.28125 C 15.34375 -5.28125 15.84375 -6.59375 15.84375 -8.21875 Z M 15.84375 -17.078125 "/></g></g></g><g fill="#222222" fill-opacity="1"><g transform="translate(101.816162, 28.778544)"><g><path d="M 16.875 -2.859375 C 17.320312 -2.390625 17.535156 -1.9375 17.515625 -1.5 C 17.492188 -1.0625 17.328125 -0.703125 17.015625 -0.421875 C 16.703125 -0.140625 16.335938 0.00390625 15.921875 0.015625 C 15.503906 0.0234375 15.109375 -0.164062 14.734375 -0.5625 L 9.5 -6.140625 L 5.09375 -6.140625 L 5.09375 -1.515625 C 5.09375 -1.035156 4.910156 -0.660156 4.546875 -0.390625 C 4.179688 -0.128906 3.796875 0 3.390625 0 C 2.960938 0 2.570312 -0.125 2.21875 -0.375 C 1.875 -0.632812 1.703125 -1.003906 1.703125 -1.484375 L 1.703125 -17.109375 C 1.703125 -17.554688 1.859375 -17.921875 2.171875 -18.203125 C 2.492188 -18.484375 2.898438 -18.625 3.390625 -18.625 L 9.90625 -18.625 C 11.664062 -18.625 13.128906 -18.335938 14.296875 -17.765625 C 15.460938 -17.203125 16.335938 -16.441406 16.921875 -15.484375 C 17.503906 -14.535156 17.796875 -13.476562 17.796875 -12.3125 C 17.796875 -10.945312 17.429688 -9.75 16.703125 -8.71875 C 15.972656 -7.695312 14.859375 -6.972656 13.359375 -6.546875 Z M 5.09375 -8.96875 L 9.9375 -8.96875 C 11.5 -8.96875 12.640625 -9.296875 13.359375 -9.953125 C 14.078125 -10.609375 14.421875 -11.382812 14.390625 -12.28125 C 14.367188 -13.25 13.96875 -14.054688 13.1875 -14.703125 C 12.40625 -15.347656 11.320312 -15.671875 9.9375 -15.671875 L 5.09375 -15.671875 Z M 5.09375 -8.96875 "/></g></g></g><g fill="#222222" fill-opacity="1"><g transform="translate(122.038504, 28.778544)"><g/></g></g><g fill="#222222" fill-opacity="1"><g transform="translate(131.039457, 28.778544)"><g><path d="M 3.453125 -18.625 C 4.078125 -18.625 4.570312 -18.332031 4.9375 -17.75 L 11.046875 -8.1875 L 17.125 -17.78125 C 17.320312 -18.070312 17.5625 -18.285156 17.84375 -18.421875 C 18.125 -18.554688 18.40625 -18.625 18.6875 -18.625 C 19.113281 -18.625 19.488281 -18.484375 19.8125 -18.203125 C 20.144531 -17.921875 20.3125 -17.515625 20.3125 -16.984375 L 20.3125 -1.515625 C 20.3125 -1.015625 20.125 -0.632812 19.75 -0.375 C 19.382812 -0.125 19 0 18.59375 0 C 18.164062 0 17.78125 -0.125 17.4375 -0.375 C 17.09375 -0.632812 16.921875 -1.015625 16.921875 -1.515625 L 16.921875 -11.375 L 12.578125 -4.5625 C 12.421875 -4.269531 12.195312 -4.054688 11.90625 -3.921875 C 11.625 -3.785156 11.335938 -3.71875 11.046875 -3.71875 C 10.753906 -3.71875 10.457031 -3.796875 10.15625 -3.953125 C 9.851562 -4.117188 9.625 -4.347656 9.46875 -4.640625 L 5.171875 -11.34375 L 5.171875 -1.515625 C 5.171875 -1.015625 4.988281 -0.632812 4.625 -0.375 C 4.269531 -0.125 3.890625 0 3.484375 0 C 3.046875 0 2.648438 -0.125 2.296875 -0.375 C 1.953125 -0.632812 1.78125 -1.015625 1.78125 -1.515625 L 1.78125 -16.953125 C 1.78125 -17.460938 1.953125 -17.867188 2.296875 -18.171875 C 2.640625 -18.472656 3.023438 -18.625 3.453125 -18.625 Z M 3.453125 -18.625 "/></g></g></g><g fill="#222222" fill-opacity="1"><g transform="translate(155.499032, 28.778544)"><g><path d="M 9.5625 -18.921875 C 9.875 -18.921875 10.164062 -18.851562 10.4375 -18.71875 C 10.707031 -18.59375 10.910156 -18.382812 11.046875 -18.09375 L 19.328125 -1.875 C 19.578125 -1.445312 19.644531 -1.070312 19.53125 -0.75 C 19.414062 -0.425781 19.191406 -0.171875 18.859375 0.015625 C 18.523438 0.203125 18.171875 0.296875 17.796875 0.296875 C 17.523438 0.296875 17.25 0.222656 16.96875 0.078125 C 16.6875 -0.0664062 16.46875 -0.28125 16.3125 -0.5625 L 14.265625 -4.625 L 4.859375 -4.625 L 2.8125 -0.5625 C 2.675781 -0.25 2.460938 -0.03125 2.171875 0.09375 C 1.890625 0.226562 1.613281 0.296875 1.34375 0.296875 C 1.007812 0.296875 0.679688 0.203125 0.359375 0.015625 C 0.046875 -0.171875 -0.179688 -0.425781 -0.328125 -0.75 C -0.484375 -1.070312 -0.472656 -1.414062 -0.296875 -1.78125 L 8.046875 -18.09375 C 8.191406 -18.425781 8.382812 -18.644531 8.625 -18.75 C 8.875 -18.863281 9.1875 -18.921875 9.5625 -18.921875 Z M 9.5625 -13.96875 L 6.28125 -7.453125 L 12.828125 -7.453125 Z M 9.5625 -13.96875 "/></g></g></g><g fill="#222222" fill-opacity="1"><g transform="translate(176.890251, 28.778544)"><g><path d="M 16.875 -2.859375 C 17.320312 -2.390625 17.535156 -1.9375 17.515625 -1.5 C 17.492188 -1.0625 17.328125 -0.703125 17.015625 -0.421875 C 16.703125 -0.140625 16.335938 0.00390625 15.921875 0.015625 C 15.503906 0.0234375 15.109375 -0.164062 14.734375 -0.5625 L 9.5 -6.140625 L 5.09375 -6.140625 L 5.09375 -1.515625 C 5.09375 -1.035156 4.910156 -0.660156 4.546875 -0.390625 C 4.179688 -0.128906 3.796875 0 3.390625 0 C 2.960938 0 2.570312 -0.125 2.21875 -0.375 C 1.875 -0.632812 1.703125 -1.003906 1.703125 -1.484375 L 1.703125 -17.109375 C 1.703125 -17.554688 1.859375 -17.921875 2.171875 -18.203125 C 2.492188 -18.484375 2.898438 -18.625 3.390625 -18.625 L 9.90625 -18.625 C 11.664062 -18.625 13.128906 -18.335938 14.296875 -17.765625 C 15.460938 -17.203125 16.335938 -16.441406 16.921875 -15.484375 C 17.503906 -14.535156 17.796875 -13.476562 17.796875 -12.3125 C 17.796875 -10.945312 17.429688 -9.75 16.703125 -8.71875 C 15.972656 -7.695312 14.859375 -6.972656 13.359375 -6.546875 Z M 5.09375 -8.96875 L 9.9375 -8.96875 C 11.5 -8.96875 12.640625 -9.296875 13.359375 -9.953125 C 14.078125 -10.609375 14.421875 -11.382812 14.390625 -12.28125 C 14.367188 -13.25 13.96875 -14.054688 13.1875 -14.703125 C 12.40625 -15.347656 11.320312 -15.671875 9.9375 -15.671875 L 5.09375 -15.671875 Z M 5.09375 -8.96875 "/></g></g></g><g fill="#222222" fill-opacity="1"><g transform="translate(197.112593, 28.778544)"><g><path d="M 16.6875 -2.609375 C 17.0625 -2.148438 17.25 -1.75 17.25 -1.40625 C 17.25 -1 17.085938 -0.660156 16.765625 -0.390625 C 16.441406 -0.128906 16.054688 0 15.609375 0 C 15.378906 0 15.144531 -0.0351562 14.90625 -0.109375 C 14.675781 -0.191406 14.453125 -0.34375 14.234375 -0.5625 L 7.25 -8.046875 L 5.0625 -6.109375 L 5.0625 -1.515625 C 5.0625 -1.035156 4.878906 -0.660156 4.515625 -0.390625 C 4.148438 -0.128906 3.753906 0 3.328125 0 C 2.898438 0 2.515625 -0.128906 2.171875 -0.390625 C 1.835938 -0.660156 1.671875 -1.035156 1.671875 -1.515625 L 1.671875 -17.125 C 1.671875 -17.632812 1.835938 -18.007812 2.171875 -18.25 C 2.515625 -18.5 2.898438 -18.625 3.328125 -18.625 C 3.753906 -18.625 4.148438 -18.5 4.515625 -18.25 C 4.878906 -18.007812 5.0625 -17.632812 5.0625 -17.125 L 5.0625 -10.140625 L 14.09375 -18.15625 C 14.457031 -18.46875 14.863281 -18.625 15.3125 -18.625 C 15.78125 -18.625 16.179688 -18.46875 16.515625 -18.15625 C 16.847656 -17.84375 17.015625 -17.492188 17.015625 -17.109375 C 17.015625 -16.691406 16.820312 -16.3125 16.4375 -15.96875 L 9.640625 -10.078125 Z M 16.6875 -2.609375 "/></g></g></g><g fill="#222222" fill-opacity="1"><g transform="translate(216.458262, 28.778544)"><g><path d="M 15.234375 -2.921875 C 15.734375 -2.921875 16.125 -2.757812 16.40625 -2.4375 C 16.695312 -2.113281 16.84375 -1.769531 16.84375 -1.40625 C 16.84375 -1.050781 16.707031 -0.726562 16.4375 -0.4375 C 16.175781 -0.144531 15.773438 0 15.234375 0 L 3.625 0 C 3.039062 0 2.570312 -0.164062 2.21875 -0.5 C 1.875 -0.84375 1.703125 -1.257812 1.703125 -1.75 L 1.703125 -16.890625 C 1.703125 -17.359375 1.875 -17.765625 2.21875 -18.109375 C 2.570312 -18.453125 3.039062 -18.625 3.625 -18.625 L 15.234375 -18.625 C 15.753906 -18.625 16.140625 -18.484375 16.390625 -18.203125 C 16.648438 -17.921875 16.78125 -17.59375 16.78125 -17.21875 C 16.78125 -16.863281 16.644531 -16.53125 16.375 -16.21875 C 16.113281 -15.90625 15.734375 -15.75 15.234375 -15.75 L 5.03125 -15.75 L 5.03125 -10.640625 L 14.703125 -10.640625 C 15.210938 -10.640625 15.59375 -10.488281 15.84375 -10.1875 C 16.09375 -9.882812 16.21875 -9.546875 16.21875 -9.171875 C 16.21875 -8.828125 16.09375 -8.507812 15.84375 -8.21875 C 15.59375 -7.925781 15.210938 -7.78125 14.703125 -7.78125 L 5.03125 -7.78125 L 5.03125 -2.921875 Z M 15.234375 -2.921875 "/></g></g></g><g fill="#222222" fill-opacity="1"><g transform="translate(236.154589, 28.778544)"><g><path d="M 15.140625 -18.625 C 15.703125 -18.625 16.128906 -18.46875 16.421875 -18.15625 C 16.722656 -17.84375 16.875 -17.492188 16.875 -17.109375 C 16.875 -16.734375 16.722656 -16.390625 16.421875 -16.078125 C 16.128906 -15.765625 15.703125 -15.609375 15.140625 -15.609375 L 9.703125 -15.609375 L 9.734375 -1.546875 C 9.734375 -1.023438 9.539062 -0.632812 9.15625 -0.375 C 8.78125 -0.125 8.398438 0 8.015625 0 C 7.597656 0 7.207031 -0.125 6.84375 -0.375 C 6.488281 -0.632812 6.3125 -1.023438 6.3125 -1.546875 L 6.3125 -15.609375 L 0.90625 -15.609375 C 0.34375 -15.609375 -0.0664062 -15.765625 -0.328125 -16.078125 C -0.597656 -16.390625 -0.734375 -16.734375 -0.734375 -17.109375 C -0.734375 -17.492188 -0.597656 -17.84375 -0.328125 -18.15625 C -0.0664062 -18.46875 0.34375 -18.625 0.90625 -18.625 Z M 15.140625 -18.625 "/></g></g></g><g fill="#222222" fill-opacity="1"><g transform="translate(254.389794, 28.778544)"><g><path d="M 5.0625 -5.171875 L 5.0625 -1.484375 C 5.0625 -0.984375 4.878906 -0.609375 4.515625 -0.359375 C 4.148438 -0.117188 3.765625 0 3.359375 0 C 2.929688 0 2.546875 -0.117188 2.203125 -0.359375 C 1.867188 -0.609375 1.703125 -0.976562 1.703125 -1.46875 L 1.703125 -17.109375 C 1.703125 -17.554688 1.863281 -17.921875 2.1875 -18.203125 C 2.519531 -18.484375 2.921875 -18.625 3.390625 -18.625 L 9.359375 -18.625 C 10.972656 -18.625 12.351562 -18.332031 13.5 -17.75 C 14.65625 -17.175781 15.535156 -16.378906 16.140625 -15.359375 C 16.742188 -14.335938 17.046875 -13.132812 17.046875 -11.75 C 17.046875 -9.78125 16.363281 -8.191406 15 -6.984375 C 13.632812 -5.773438 11.722656 -5.171875 9.265625 -5.171875 Z M 5.0625 -15.734375 L 5.0625 -8.0625 L 9.265625 -8.0625 C 10.710938 -8.0625 11.816406 -8.394531 12.578125 -9.0625 C 13.335938 -9.738281 13.71875 -10.632812 13.71875 -11.75 C 13.71875 -12.957031 13.335938 -13.921875 12.578125 -14.640625 C 11.828125 -15.367188 10.765625 -15.734375 9.390625 -15.734375 Z M 5.0625 -15.734375 "/></g></g></g><g fill="#222222" fill-opacity="1"><g transform="translate(274.115346, 28.778544)"><g><path d="M 3.421875 0 C 2.796875 0 2.347656 -0.132812 2.078125 -0.40625 C 1.804688 -0.675781 1.671875 -1.066406 1.671875 -1.578125 L 1.671875 -17.125 C 1.671875 -17.632812 1.847656 -18.007812 2.203125 -18.25 C 2.566406 -18.5 2.960938 -18.625 3.390625 -18.625 C 3.796875 -18.625 4.179688 -18.5 4.546875 -18.25 C 4.910156 -18.007812 5.09375 -17.632812 5.09375 -17.125 L 5.09375 -2.921875 L 14.671875 -2.921875 C 15.242188 -2.921875 15.679688 -2.765625 15.984375 -2.453125 C 16.285156 -2.140625 16.4375 -1.8125 16.4375 -1.46875 C 16.4375 -1.09375 16.285156 -0.753906 15.984375 -0.453125 C 15.679688 -0.148438 15.242188 0 14.671875 0 Z M 3.421875 0 "/></g></g></g><g fill="#222222" fill-opacity="1"><g transform="translate(291.970668, 28.778544)"><g><path d="M 9.5625 -18.921875 C 9.875 -18.921875 10.164062 -18.851562 10.4375 -18.71875 C 10.707031 -18.59375 10.910156 -18.382812 11.046875 -18.09375 L 19.328125 -1.875 C 19.578125 -1.445312 19.644531 -1.070312 19.53125 -0.75 C 19.414062 -0.425781 19.191406 -0.171875 18.859375 0.015625 C 18.523438 0.203125 18.171875 0.296875 17.796875 0.296875 C 17.523438 0.296875 17.25 0.222656 16.96875 0.078125 C 16.6875 -0.0664062 16.46875 -0.28125 16.3125 -0.5625 L 14.265625 -4.625 L 4.859375 -4.625 L 2.8125 -0.5625 C 2.675781 -0.25 2.460938 -0.03125 2.171875 0.09375 C 1.890625 0.226562 1.613281 0.296875 1.34375 0.296875 C 1.007812 0.296875 0.679688 0.203125 0.359375 0.015625 C 0.046875 -0.171875 -0.179688 -0.425781 -0.328125 -0.75 C -0.484375 -1.070312 -0.472656 -1.414062 -0.296875 -1.78125 L 8.046875 -18.09375 C 8.191406 -18.425781 8.382812 -18.644531 8.625 -18.75 C 8.875 -18.863281 9.1875 -18.921875 9.5625 -18.921875 Z M 9.5625 -13.96875 L 6.28125 -7.453125 L 12.828125 -7.453125 Z M 9.5625 -13.96875 "/></g></g></g><g fill="#222222" fill-opacity="1"><g transform="translate(313.361887, 28.778544)"><g><path d="M 10.234375 -18.921875 C 11.671875 -18.921875 13.003906 -18.703125 14.234375 -18.265625 C 15.460938 -17.835938 16.554688 -17.085938 17.515625 -16.015625 C 17.898438 -15.566406 18.066406 -15.140625 18.015625 -14.734375 C 17.972656 -14.328125 17.789062 -13.992188 17.46875 -13.734375 C 17.144531 -13.484375 16.765625 -13.367188 16.328125 -13.390625 C 15.890625 -13.410156 15.472656 -13.625 15.078125 -14.03125 C 14.359375 -14.832031 13.59375 -15.347656 12.78125 -15.578125 C 11.976562 -15.816406 11.117188 -15.9375 10.203125 -15.9375 C 8.972656 -15.9375 7.894531 -15.664062 6.96875 -15.125 C 6.039062 -14.59375 5.316406 -13.847656 4.796875 -12.890625 C 4.285156 -11.929688 4.03125 -10.8125 4.03125 -9.53125 C 4.03125 -8.164062 4.289062 -6.96875 4.8125 -5.9375 C 5.34375 -4.90625 6.082031 -4.101562 7.03125 -3.53125 C 7.976562 -2.96875 9.082031 -2.6875 10.34375 -2.6875 C 11.257812 -2.6875 12.175781 -2.921875 13.09375 -3.390625 C 14.007812 -3.859375 14.742188 -4.425781 15.296875 -5.09375 C 15.679688 -5.550781 16.101562 -5.816406 16.5625 -5.890625 C 17.019531 -5.960938 17.414062 -5.882812 17.75 -5.65625 C 18.09375 -5.4375 18.296875 -5.117188 18.359375 -4.703125 C 18.429688 -4.296875 18.296875 -3.835938 17.953125 -3.328125 C 17.421875 -2.585938 16.734375 -1.941406 15.890625 -1.390625 C 15.054688 -0.847656 14.148438 -0.429688 13.171875 -0.140625 C 12.203125 0.148438 11.242188 0.296875 10.296875 0.296875 C 8.359375 0.296875 6.664062 -0.109375 5.21875 -0.921875 C 3.78125 -1.742188 2.660156 -2.890625 1.859375 -4.359375 C 1.066406 -5.835938 0.671875 -7.5625 0.671875 -9.53125 C 0.671875 -11.414062 1.085938 -13.0625 1.921875 -14.46875 C 2.765625 -15.875 3.910156 -16.96875 5.359375 -17.75 C 6.816406 -18.53125 8.441406 -18.921875 10.234375 -18.921875 Z M 10.234375 -18.921875 "/></g></g></g><g fill="#222222" fill-opacity="1"><g transform="translate(333.876473, 28.778544)"><g><path d="M 15.234375 -2.921875 C 15.734375 -2.921875 16.125 -2.757812 16.40625 -2.4375 C 16.695312 -2.113281 16.84375 -1.769531 16.84375 -1.40625 C 16.84375 -1.050781 16.707031 -0.726562 16.4375 -0.4375 C 16.175781 -0.144531 15.773438 0 15.234375 0 L 3.625 0 C 3.039062 0 2.570312 -0.164062 2.21875 -0.5 C 1.875 -0.84375 1.703125 -1.257812 1.703125 -1.75 L 1.703125 -16.890625 C 1.703125 -17.359375 1.875 -17.765625 2.21875 -18.109375 C 2.570312 -18.453125 3.039062 -18.625 3.625 -18.625 L 15.234375 -18.625 C 15.753906 -18.625 16.140625 -18.484375 16.390625 -18.203125 C 16.648438 -17.921875 16.78125 -17.59375 16.78125 -17.21875 C 16.78125 -16.863281 16.644531 -16.53125 16.375 -16.21875 C 16.113281 -15.90625 15.734375 -15.75 15.234375 -15.75 L 5.03125 -15.75 L 5.03125 -10.640625 L 14.703125 -10.640625 C 15.210938 -10.640625 15.59375 -10.488281 15.84375 -10.1875 C 16.09375 -9.882812 16.21875 -9.546875 16.21875 -9.171875 C 16.21875 -8.828125 16.09375 -8.507812 15.84375 -8.21875 C 15.59375 -7.925781 15.210938 -7.78125 14.703125 -7.78125 L 5.03125 -7.78125 L 5.03125 -2.921875 Z M 15.234375 -2.921875 "/></g></g></g></g></g></svg>