<svg xmlns="http://www.w3.org/2000/svg" width="154" height="90" viewBox="0 0 154 90"><path d="M24.275 69.202h-3.302v1.196h2.004v.125c0 .65-.222 1.164-.666 1.541-.444.376-1.053.564-1.828.564-.911 0-1.652-.306-2.223-.919-.571-.612-.857-1.411-.857-2.395 0-.968.286-1.754.857-2.358s1.309-.907 2.212-.907c.437 0 .831.083 1.184.25.353.166.67.42.951.761l.991-.779c-.406-.516-.868-.897-1.386-1.147s-1.105-.375-1.762-.375c-.623 0-1.207.109-1.753.327-.546.219-1.023.535-1.429.952-.421.424-.739.914-.954 1.469-.214.556-.322 1.162-.322 1.82 0 .646.105 1.254.316 1.821.21.566.513 1.061.908 1.48.402.425.871.742 1.406.952s1.145.315 1.828.315c1.222 0 2.169-.339 2.841-1.018.672-.678 1.008-1.63 1.008-2.855l-.017-.571-.007-.249zm1.446 4.462h4.651v-1.267h-3.296v-2.814h3.296v-1.243h-3.296v-2.183h3.296v-1.202h-4.651v8.709zm12.405-2.671c-.163-.214-.319-.406-.467-.577l-.438-.481-5.295-5.324v9.054h1.247v-6.056c.122.179.25.349.384.512.135.162.274.317.418.464l5.403 5.419v-9.048h-1.252v6.037zm3.166 2.671h4.651v-1.267h-3.296v-2.814h3.296v-1.243h-3.296v-2.183h3.296v-1.202h-4.651v8.709zm11.729-.282l-2.665-3.68c.63-.079 1.106-.316 1.429-.711s.484-.94.484-1.639c0-.396-.07-.762-.211-1.095-.14-.333-.339-.604-.598-.815-.216-.174-.477-.299-.783-.374s-.735-.113-1.29-.113h-1.89v8.709h1.27v-3.896h.154l2.772 3.896h2.625l.968-2.242h3.302l.945 2.242h1.429l-4.031-9.054-3.91 8.772zm-4.168-4.715v-2.498h.245c.684 0 1.151.098 1.404.294.252.196.378.535.378 1.015 0 .444-.118.754-.353.928-.235.175-.711.262-1.429.262h-.245zm8.249-.848l.154.438.854 1.987h-2.323l.854-1.987.156-.455.146-.532.159.549zm6.001-2.864h-1.355v8.709h4.384v-1.267h-3.029v-7.442zm7.668 8.709h1.355v-8.709h-1.355v8.709zm9.502-2.671c-.163-.214-.318-.406-.467-.577l-.438-.481-5.295-5.324v9.054h1.247v-6.056c.121.179.25.349.384.512.134.162.274.317.418.464l5.403 5.419v-9.048h-1.253v6.037zm5.928-2.373l-.172-.084c-.941-.452-1.412-.939-1.412-1.463 0-.333.107-.599.322-.798.215-.198.504-.297.868-.297.259 0 .487.063.687.19s.382.327.549.601l1.059-.571c-.158-.464-.445-.819-.859-1.067s-.928-.372-1.543-.372c-.748 0-1.352.22-1.813.66-.462.44-.692 1.016-.692 1.726 0 .547.153 1.01.458 1.389.306.379.918.803 1.836 1.271l.262.131c.813.4 1.219.856 1.219 1.368 0 .393-.118.706-.355.939-.237.234-.557.352-.959.352-.426 0-.775-.103-1.048-.307-.273-.204-.462-.501-.563-.89l-1.082.523c.141.635.438 1.123.891 1.464.454.341 1.035.512 1.746.512.846 0 1.518-.243 2.015-.729.497-.486.746-1.142.746-1.967 0-.566-.153-1.04-.462-1.419-.309-.378-.876-.765-1.698-1.162zm9.092 1.624c0 .785-.174 1.375-.521 1.77s-.864.592-1.551.592c-.691 0-1.211-.197-1.558-.592s-.521-.984-.521-1.77v-5.289h-1.338v5.419c0 1.183.282 2.064.848 2.647.566.583 1.422.875 2.568.875s2.004-.292 2.572-.878c.57-.585.854-1.466.854-2.645v-5.419h-1.354v5.29zm8.745 3.138l-2.665-3.68c.63-.079 1.106-.316 1.43-.711.322-.395.483-.94.483-1.639 0-.396-.07-.762-.211-1.095-.14-.333-.339-.604-.598-.815-.216-.174-.478-.299-.782-.374-.307-.075-.736-.113-1.29-.113h-1.89v8.709h1.27v-3.896h.153l2.772 3.896h2.625l.968-2.242h3.302l.945 2.242h1.429l-4.03-9.054-3.911 8.772zm-4.168-4.715v-2.498h.245c.683 0 1.15.098 1.402.294.253.196.379.535.379 1.015 0 .444-.117.754-.353.928-.235.175-.712.262-1.429.262h-.244zm8.249-.848l.154.438.854 1.987h-2.322l.854-1.987.156-.455.146-.532.158.549zm10.846 3.174c-.162-.214-.318-.406-.467-.577l-.438-.481-5.295-5.324v9.054h1.246v-6.056c.122.179.25.349.385.512.135.162.273.317.418.464l5.403 5.419v-9.048h-1.253v6.037zm7.236-6.246c-.622 0-1.201.109-1.736.33-.535.22-1.01.544-1.424.973-.413.425-.729.917-.947 1.479-.219.561-.328 1.161-.328 1.799 0 .639.109 1.24.328 1.806s.53 1.056.937 1.473c.41.425.886.746 1.427.964s1.129.327 1.768.327c.5 0 .965-.067 1.395-.202.429-.135.825-.339 1.189-.613v-1.6c-.41.368-.838.645-1.283.826-.446.183-.916.274-1.409.274-.847 0-1.548-.306-2.104-.917-.556-.61-.834-1.386-.834-2.325 0-.972.286-1.764.857-2.374s1.313-.916 2.223-.916c.471 0 .92.085 1.348.256.426.171.832.426 1.215.768l.074-1.428c-.418-.302-.849-.526-1.293-.676-.446-.15-.913-.224-1.403-.224zm4.299 8.917h4.651v-1.267h-3.296v-2.814h3.296v-1.243h-3.296v-2.183h3.296v-1.202h-4.651v8.709zm-43.738-36.11l-5.215 4.726v12.894h5.215v-17.62zm-36.354 15.237v2.382h5.214v-17.619l-5.214 4.726v4.916c.009 1.669-.934 3.984-3.713 3.984-1.159 0-3.528-.1-3.528-3.334v-10.292l-5.212 4.726v8.197c0 1.18.934 4.957 5.962 4.957 1.133 0 4.362-.52 6.491-2.643zm44.776-29.037l-5.213 5.306v26.113h5.213v-31.419zm11.684 32.244c.418 0 5.722-.264 8.288-4.331l-4.395-1.311s-.43 2.385-4.014 2.365c-5.625-.028-5.085-6.285-5.085-6.285 0-5.339 3.498-5.718 4.654-5.713 5.438.032 4.874 4.192 4.874 4.192h-7.004l-2.163 3.09 13.454.001s1.743-10.626-9.596-10.686c-3.168-.016-8.32 1.916-8.326 10.083.002.932.353 8.599 9.313 8.595zm17.724-11.082l-2.161 3.09 13.45.001s1.751-10.626-9.59-10.686c-3.17-.016-8.32 1.916-8.329 10.083 0 .931.355 8.598 9.315 8.594.416 0 5.72-.264 8.29-4.331l-4.399-1.311s-.43 2.385-4.016 2.365c-5.624-.028-5.082-6.285-5.082-6.285 0-5.339 3.5-5.718 4.652-5.713 5.438.032 4.878 4.192 4.878 4.192h-7.008zm-89.82 4.413v-35.317l-6.064 5.497v28.185c-.158 1.979-1.045 3.032-3.245 3.34h-.153c-2.233-.313-3.116-1.397-3.253-3.436v-10.044l-6.057 5.489v6.286c.832 6.051 7.291 6.518 9.387 6.481 2.093.037 8.552-.43 9.385-6.481zm43.898-3.551c-.084-2.391-1.783-8.305-8.468-8.543-2.026-.071-5.282 1.155-6.205 2.725v-10.773l-.034-.021.031-.685-5.215-4.727v31.419h5.215v-1.372c.755.833 2.692 2.334 6.722 2.188 2.498-.093 8.262-1.361 7.954-10.211zm-9.993 6.206c-2.898 0-5.249-2.39-5.249-5.343 0-2.948 2.351-5.34 5.249-5.34 2.896 0 5.247 2.392 5.247 5.34 0 2.954-2.351 5.343-5.247 5.343z" fill-rule="evenodd" clip-rule="evenodd" fill="#fff"/></svg>