<?xml version="1.0" encoding="UTF-8"?> <!-- Generator: Adobe Illustrator 26.0.2, SVG Export Plug-In . SVG Version: 6.00 Build 0) --> <svg xmlns="http://www.w3.org/2000/svg" xmlns:xlink="http://www.w3.org/1999/xlink" version="1.1" id="Layer_1" x="0px" y="0px" viewBox="0 0 999.1 199.7" style="enable-background:new 0 0 999.1 199.7;" xml:space="preserve"> <style type="text/css"> .st0{clip-path:url(#SVGID_00000096040417542086231250000013035761629163472001_);fill:#939598;} .st1{clip-path:url(#SVGID_00000031170310605639595610000003198586284239584152_);} .st2{clip-path:url(#SVGID_00000030473879565057791790000000248005257894761401_);fill:#939598;} .st3{clip-path:url(#SVGID_00000132806908294164756480000015488500121310590387_);fill:#939598;} .st4{clip-path:url(#SVGID_00000060729806112847119920000013618325717205232284_);fill:#78C583;} .st5{clip-path:url(#SVGID_00000110462178458287845630000002167357815851544991_);fill:#78C583;} .st6{clip-path:url(#SVGID_00000040546833123116134020000003031105042344192919_);fill:#78C583;} .st7{clip-path:url(#SVGID_00000072249441442681392980000005525783214646199711_);fill:#78C583;} .st8{clip-path:url(#SVGID_00000097502651105683817990000009272898545916226464_);fill-rule:evenodd;clip-rule:evenodd;fill:#939598;} .st9{clip-path:url(#SVGID_00000070086290843459430990000005902301428502691762_);fill-rule:evenodd;clip-rule:evenodd;fill:#78C583;} .st10{display:none;} .st11{display:inline;} .st12{clip-path:url(#SVGID_00000173162340067776903620000004209197239796478879_);fill:#939598;} .st13{clip-path:url(#SVGID_00000138568670587342252420000006816917972210685062_);} .st14{clip-path:url(#SVGID_00000142855083180590222140000011356238621634667400_);fill:#939598;} .st15{clip-path:url(#SVGID_00000058559141343658009170000004299097561675949739_);fill:#939598;} .st16{clip-path:url(#SVGID_00000070114763582464488020000006903316976583738809_);fill:#00AEEF;} .st17{clip-path:url(#SVGID_00000075140155890520794400000009774743707171028394_);fill:#00AEEF;} .st18{clip-path:url(#SVGID_00000163047207480252773690000008296429807647845023_);fill:#00AEEF;} .st19{clip-path:url(#SVGID_00000091012040243671458270000006799036449079123072_);fill:#00AEEF;} .st20{clip-path:url(#SVGID_00000111894571782892630340000016873010966974619581_);fill:#00AEEF;} .st21{clip-path:url(#SVGID_00000098924966445996268680000018414749439684468888_);fill:#00AEEF;} .st22{clip-path:url(#SVGID_00000085238247241539130430000015550798053850832312_);fill:#00AEEF;} .st23{clip-path:url(#SVGID_00000097476186820816439240000014241325249528206212_);fill:#00AEEF;} .st24{clip-path:url(#SVGID_00000145041972454286914920000006153578235245701282_);fill:#00AEEF;} .st25{clip-path:url(#SVGID_00000090976282525459014820000005407770903620908697_);fill:#00AEEF;} .st26{clip-path:url(#SVGID_00000119815115008784862780000016492833860736253335_);fill-rule:evenodd;clip-rule:evenodd;fill:#939598;} .st27{clip-path:url(#SVGID_00000155825109990314703930000010800520568540175496_);fill-rule:evenodd;clip-rule:evenodd;fill:#00AEEF;} .st28{clip-path:url(#SVGID_00000176038472253398400510000017975833940606325913_);fill:#939598;} .st29{clip-path:url(#SVGID_00000128469017407426095250000010702104252274953898_);} .st30{clip-path:url(#SVGID_00000137832387676832796130000009443564942696269962_);fill:#939598;} .st31{clip-path:url(#SVGID_00000102546410915880807640000009728868661021394068_);fill:#939598;} .st32{clip-path:url(#SVGID_00000036228840642082863010000001305522991976247466_);fill:#F47920;} .st33{clip-path:url(#SVGID_00000085952921353029402100000017027136791999263636_);fill:#F47920;} .st34{clip-path:url(#SVGID_00000105415471121130420160000007771455728494420105_);fill:#F47920;} .st35{clip-path:url(#SVGID_00000102526692216318575390000001878125445056213656_);fill:#F47920;} .st36{clip-path:url(#SVGID_00000068650754403177748050000003182364180361273256_);fill:#F47920;} .st37{clip-path:url(#SVGID_00000137114621097780210100000016834493258420766887_);fill:#F47920;} .st38{clip-path:url(#SVGID_00000103228424357664692760000018120817103031668875_);fill:#F47920;} .st39{clip-path:url(#SVGID_00000025415616906843387520000016459313392542005918_);fill:#F47920;} .st40{clip-path:url(#SVGID_00000112603077055694444360000007123475169860825767_);fill:#F47920;} .st41{clip-path:url(#SVGID_00000165941867369727775980000005113864101986577039_);fill-rule:evenodd;clip-rule:evenodd;fill:#939598;} .st42{clip-path:url(#SVGID_00000143609363198679976520000000343271987482674620_);fill-rule:evenodd;clip-rule:evenodd;fill:#F47920;} .st43{clip-path:url(#SVGID_00000158747811258168976780000008254799982250961594_);fill:#939598;} .st44{clip-path:url(#SVGID_00000137833653921231591350000009086314340831363497_);} .st45{clip-path:url(#SVGID_00000059991440093261346700000003809561355881856924_);fill:#939598;} .st46{clip-path:url(#SVGID_00000138565186308729428010000017310070868228099227_);fill:#939598;} .st47{clip-path:url(#SVGID_00000016782461625537534560000004906179518022282932_);fill:#00AEEF;} .st48{clip-path:url(#SVGID_00000170970616894584954760000004573604635526950285_);fill:#00AEEF;} .st49{clip-path:url(#SVGID_00000129197723265047812010000009098991397929212311_);fill:#00AEEF;} .st50{clip-path:url(#SVGID_00000103949905699988623970000008929762586601688479_);fill:#00AEEF;} .st51{clip-path:url(#SVGID_00000080897191211152569050000016411306671396011174_);fill:#00AEEF;} .st52{clip-path:url(#SVGID_00000092432232543911468050000017704549770228562843_);fill:#00AEEF;} .st53{clip-path:url(#SVGID_00000059283038389150376040000010958174203549307279_);fill:#00AEEF;} .st54{clip-path:url(#SVGID_00000165952897254051834340000001814955552894279820_);fill:#00AEEF;} .st55{clip-path:url(#SVGID_00000139264108521261943450000005714581150544196026_);fill:#00AEEF;} .st56{clip-path:url(#SVGID_00000142141670372792046250000014607299145764176264_);fill:#00AEEF;} .st57{clip-path:url(#SVGID_00000078016197416153335860000011872523323853328575_);fill-rule:evenodd;clip-rule:evenodd;fill:#939598;} .st58{clip-path:url(#SVGID_00000112614214181991093170000015068684128805927302_);fill-rule:evenodd;clip-rule:evenodd;fill:#00AEEF;} .st59{clip-path:url(#SVGID_00000021102556636697045320000003081541340814876062_);fill:#939598;} .st60{clip-path:url(#SVGID_00000158015812004111783180000006643598846881538479_);} .st61{clip-path:url(#SVGID_00000123402063984997889420000006753146337837285294_);fill:#939598;} .st62{clip-path:url(#SVGID_00000097466705983274156830000006599170411201383317_);fill:#939598;} .st63{clip-path:url(#SVGID_00000113342486924450027260000000177217036818288059_);fill:#411E75;} .st64{clip-path:url(#SVGID_00000003788279670939651570000008098964166814957753_);fill:#411E75;} .st65{clip-path:url(#SVGID_00000012447580337203182150000000891116915668675991_);fill:#411E75;} .st66{clip-path:url(#SVGID_00000004520238135948315480000007498820707319576198_);fill:#411E75;} .st67{clip-path:url(#SVGID_00000087397266133778124590000011606922986107964046_);fill:#411E75;} .st68{clip-path:url(#SVGID_00000145035784676072790360000016616896380963845025_);fill:#411E75;} .st69{clip-path:url(#SVGID_00000136401965333255100880000010770154616572659369_);fill:#411E75;} .st70{clip-path:url(#SVGID_00000103224114220149859400000015153938892242948999_);fill:#411E75;} .st71{clip-path:url(#SVGID_00000182489246656791238020000004183057744505459633_);fill:#411E75;} .st72{clip-path:url(#SVGID_00000084519851443363247300000008039551072739102362_);fill:#411E75;} .st73{clip-path:url(#SVGID_00000067226084487661327100000014616818423063903373_);fill-rule:evenodd;clip-rule:evenodd;fill:#939598;} .st74{clip-path:url(#SVGID_00000123438340192196071580000012965182497553225914_);fill-rule:evenodd;clip-rule:evenodd;fill:#411E75;} .st75{clip-path:url(#SVGID_00000129189037682897286060000000274178120063825285_);fill:#939597;} .st76{clip-path:url(#SVGID_00000009591725564799383240000014373888243856191673_);} .st77{clip-path:url(#SVGID_00000032640776250161234740000009606923630907334583_);fill:#939597;} .st78{clip-path:url(#SVGID_00000009550187364831323360000007064832763917783217_);fill:#939597;} .st79{clip-path:url(#SVGID_00000156550817149112584520000010807192830464412546_);fill:#679267;} .st80{clip-path:url(#SVGID_00000076605785929321903800000001997220945914747524_);fill:#679267;} .st81{clip-path:url(#SVGID_00000055699049591073504500000001162977524281445011_);fill:#679267;} .st82{clip-path:url(#SVGID_00000053526654105629156240000017975948339076810892_);fill-rule:evenodd;clip-rule:evenodd;fill:#939597;} .st83{clip-path:url(#SVGID_00000000222578177719463720000004569902385827489205_);fill-rule:evenodd;clip-rule:evenodd;fill:#679267;} .st84{clip-path:url(#SVGID_00000071536623203396744700000003779395399396084650_);fill:#939598;} .st85{clip-path:url(#SVGID_00000103266177230367358040000016794584881759258764_);} .st86{clip-path:url(#SVGID_00000048490497789402546910000016291200924161989770_);fill:#939598;} .st87{clip-path:url(#SVGID_00000137110263289661734980000008924089260682909570_);fill:#939598;} .st88{clip-path:url(#SVGID_00000077291969704414144770000011520417316284527502_);fill:#0DB14B;} .st89{clip-path:url(#SVGID_00000031175205637556336430000006747894207084719776_);fill:#0DB14B;} .st90{clip-path:url(#SVGID_00000078023327109369539830000014388870797383159183_);fill:#0DB14B;} .st91{clip-path:url(#SVGID_00000154389473549674042820000005863634040860771489_);fill:#0DB14B;} .st92{clip-path:url(#SVGID_00000160884037227954867580000017433222493650566829_);fill:#0DB14B;} .st93{clip-path:url(#SVGID_00000118397036498967782700000016518901287399623318_);fill:#0DB14B;} .st94{clip-path:url(#SVGID_00000093155302493605473960000015273140629653338254_);fill:#0DB14B;} .st95{clip-path:url(#SVGID_00000022536651664733918750000009764780962227142065_);fill:#0DB14B;} .st96{clip-path:url(#SVGID_00000176027916724371473630000005992921756787121559_);fill:#0DB14B;} .st97{clip-path:url(#SVGID_00000072998848048265192790000004151659700127310727_);fill:#0DB14B;} .st98{clip-path:url(#SVGID_00000086653675344259083550000012528084616823365273_);fill:#0DB14B;} .st99{clip-path:url(#SVGID_00000008858482241031228540000012751108596474780304_);fill:#0DB14B;} .st100{clip-path:url(#SVGID_00000158728865472524140120000016041951997656024732_);fill:#0DB14B;} .st101{clip-path:url(#SVGID_00000133486869175374718900000003571685968885494442_);fill:#0DB14B;} .st102{clip-path:url(#SVGID_00000024721880393769585200000002156586647443318656_);fill:#0DB14B;} .st103{clip-path:url(#SVGID_00000046316719980315977980000009757805956204323259_);fill:#0DB14B;} .st104{clip-path:url(#SVGID_00000054957769418829755700000005802798456289365160_);fill-rule:evenodd;clip-rule:evenodd;fill:#939598;} .st105{clip-path:url(#SVGID_00000145035389840424798110000005346835864929868184_);fill-rule:evenodd;clip-rule:evenodd;fill:#0DB14B;} .st106{clip-path:url(#SVGID_00000008829162606440252680000015433257439945518013_);fill:#939598;} .st107{clip-path:url(#SVGID_00000080911067155922234050000001247035073660790172_);} .st108{clip-path:url(#SVGID_00000051358266683168289960000014122528004887109054_);fill:#939598;} .st109{clip-path:url(#SVGID_00000003067256480825293540000017833544452667647904_);fill:#939598;} .st110{clip-path:url(#SVGID_00000074422976423563535950000013074736478029574535_);fill:#A72C32;} .st111{clip-path:url(#SVGID_00000066473453817264648300000004143752497641815951_);fill:#A72C32;} .st112{clip-path:url(#SVGID_00000003784516785412595110000009863926793596678327_);fill:#A72C32;} .st113{clip-path:url(#SVGID_00000114074177703683950000000008880503727843177867_);fill:#A72C32;} .st114{clip-path:url(#SVGID_00000013173841827510259600000006229281337645477797_);fill:#A72C32;} .st115{clip-path:url(#SVGID_00000024707623178381582580000000323893293413327793_);fill:#A72C32;} .st116{clip-path:url(#SVGID_00000056394761146755945860000015857109670900927372_);fill:#A72C32;} .st117{clip-path:url(#SVGID_00000165216571955748673050000005074340396460354442_);fill-rule:evenodd;clip-rule:evenodd;fill:#939598;} .st118{clip-path:url(#SVGID_00000078044390019528347770000004241020750588887978_);fill-rule:evenodd;clip-rule:evenodd;fill:#A72C32;} </style> <g id="e-Ventures_00000109726728656064760250000018094258174527908519_" class="st10"> <g class="st11"> <g> <defs> <rect id="SVGID_00000031912784559567803040000013176631197595473792_" x="-113.4" y="63.7" width="1008.2" height="72.2"></rect> </defs> <clipPath id="SVGID_00000013892626891191178670000001393648447780969355_"> <use xlink:href="#SVGID_00000031912784559567803040000013176631197595473792_" style="overflow:visible;"></use> </clipPath> <polygon style="clip-path:url(#SVGID_00000013892626891191178670000001393648447780969355_);fill:#939598;" points="-27.8,63.7 -27.8,71 8.2,71 8.2,135.2 16.8,135.2 16.8,71 53,71 53,63.7 "></polygon> </g> <g> <defs> <rect id="SVGID_00000097493741982788851690000011541059154745660598_" x="-113.4" y="63.7" width="1008.2" height="72.2"></rect> </defs> <clipPath id="SVGID_00000163042330440025963340000010154968023216572569_"> <use xlink:href="#SVGID_00000097493741982788851690000011541059154745660598_" style="overflow:visible;"></use> </clipPath> <g style="clip-path:url(#SVGID_00000163042330440025963340000010154968023216572569_);"> <g> <defs> <rect id="SVGID_00000086671208417876575220000015288973415142498983_" x="-113.4" y="63.7" width="1008.2" height="72.2"></rect> </defs> <clipPath id="SVGID_00000157307326653817136230000004306983478133497785_"> <use xlink:href="#SVGID_00000086671208417876575220000015288973415142498983_" style="overflow:visible;"></use> </clipPath> <path style="clip-path:url(#SVGID_00000157307326653817136230000004306983478133497785_);fill:#939598;" d="M139.6,84.1 c0,4.1-0.3,7.7-0.9,10.8c-0.6,3.1-1.7,5.6-3.4,7.3c-1.7,1.7-3.8,3-6.3,3.8s-6.2,1.2-11.2,1.2h-50v28h-8.7V63.7h59.2 c7.8,0,13.3,1.4,16.4,4.3C138,71,139.6,76.3,139.6,84.1 M130.6,84.5c0-5-0.9-8.5-2.8-10.5s-5.3-3-10.3-3H67.8v29h44.8 c7.1,0,11.9-0.9,14.4-2.7C129.4,95.6,130.6,91.3,130.6,84.5"></path> </g> <g> <defs> <rect id="SVGID_00000106857596829829966480000002740159477393502399_" x="-113.4" y="63.7" width="1008.2" height="72.2"></rect> </defs> <clipPath id="SVGID_00000096758868707898005750000002750971289436238991_"> <use xlink:href="#SVGID_00000106857596829829966480000002740159477393502399_" style="overflow:visible;"></use> </clipPath> <polygon style="clip-path:url(#SVGID_00000096758868707898005750000002750971289436238991_);fill:#939598;" points=" 216.5,135.2 151.4,135.2 151.4,63.7 160,63.7 160,128 216.5,128 "></polygon> </g> <g> <defs> <rect id="SVGID_00000039823975528993792560000007565391916172450475_" x="-113.4" y="63.7" width="1008.2" height="72.2"></rect> </defs> <clipPath id="SVGID_00000149363357395443317920000008254119157963535258_"> <use xlink:href="#SVGID_00000039823975528993792560000007565391916172450475_" style="overflow:visible;"></use> </clipPath> <path style="clip-path:url(#SVGID_00000149363357395443317920000008254119157963535258_);fill:#00AEEF;" d="M240.6,128.3 c1.1,0.2,3,0.4,5.5,0.6c2.5,0.2,5.5,0.3,8.9,0.3h4.1c3.7,0,6.6-0.1,8.8-0.3c2.1-0.2,4.1-0.7,5.8-1.4c1.7-0.7,3-1.7,3.7-2.9 c0.8-1.2,1.2-2.7,1.4-4.5h7.9c0,6.6-2.7,10.9-8,12.9s-12.2,2.9-20.6,2.9c-9.2,0-16-0.4-20.5-1.2c-4.4-0.8-8.1-3-10.9-6.6 c-2.8-3.6-4.2-9.6-4.2-17.9c0-10.4,2-17.3,5.9-20.8c4-3.5,11.1-5.3,21.5-5.3h5.1c8.1,0,14.1,0.4,18.2,1.3s7.3,3.1,9.7,6.6 s3.6,9.1,3.6,16.8v2.6h-56.7c0,4.9,0.7,8.8,2,11.5C233.4,125.6,236.2,127.4,240.6,128.3 M258.1,90.6h-5.9 c-4.1,0-7.8,0.2-11,0.7s-5.6,1.4-7.2,2.8s-2.7,2.9-3.2,4.7c-0.5,1.8-0.7,3.8-0.7,6.1h48.7c0-2.2-0.2-4.2-0.6-5.9 c-0.4-1.7-1.3-3.2-2.6-4.4c-1.3-1.2-3.3-2.1-6.1-2.9C266.7,91,262.9,90.6,258.1,90.6"></path> </g> <g> <defs> <rect id="SVGID_00000062183693174988971850000013448247319479616917_" x="-113.4" y="63.7" width="1008.2" height="72.2"></rect> </defs> <clipPath id="SVGID_00000161622232426150564230000016584674531028619423_"> <use xlink:href="#SVGID_00000062183693174988971850000013448247319479616917_" style="overflow:visible;"></use> </clipPath> <rect x="292.3" y="101.8" style="clip-path:url(#SVGID_00000161622232426150564230000016584674531028619423_);fill:#00AEEF;" width="33.5" height="7.1"></rect> </g> <g> <defs> <rect id="SVGID_00000158715173938892203860000000892003145560497314_" x="-113.4" y="63.7" width="1008.2" height="72.2"></rect> </defs> <clipPath id="SVGID_00000139263035453791274210000016483551939081752457_"> <use xlink:href="#SVGID_00000158715173938892203860000000892003145560497314_" style="overflow:visible;"></use> </clipPath> <polygon style="clip-path:url(#SVGID_00000139263035453791274210000016483551939081752457_);fill:#00AEEF;" points=" 412.7,63.7 373.1,135.2 361.2,135.2 322.2,63.7 332.2,63.7 367.2,127.5 402.8,63.7 "></polygon> </g> <g> <defs> <rect id="SVGID_00000170991987572364659220000012196385245000668069_" x="-113.4" y="63.7" width="1008.2" height="72.2"></rect> </defs> <clipPath id="SVGID_00000142135765315763304790000013102754295135569561_"> <use xlink:href="#SVGID_00000170991987572364659220000012196385245000668069_" style="overflow:visible;"></use> </clipPath> <path style="clip-path:url(#SVGID_00000142135765315763304790000013102754295135569561_);fill:#00AEEF;" d="M433.1,128.3 c1.1,0.2,3,0.4,5.5,0.6c2.5,0.2,5.5,0.3,8.9,0.3h4.1c3.7,0,6.6-0.1,8.8-0.3c2.1-0.2,4.1-0.7,5.8-1.4c1.7-0.7,3-1.7,3.7-2.9 c0.8-1.2,1.2-2.7,1.4-4.5h7.9c0,6.6-2.7,10.9-8,12.9s-12.2,2.9-20.6,2.9c-9.2,0-16-0.4-20.5-1.2c-4.4-0.8-8.1-3-10.9-6.6 c-2.8-3.6-4.2-9.6-4.2-17.9c0-10.4,2-17.3,5.9-20.8c4-3.5,11.1-5.3,21.5-5.3h5.1c8.1,0,14.1,0.4,18.2,1.3 c4.1,0.9,7.3,3.1,9.7,6.6s3.6,9.1,3.6,16.8v2.6h-56.7c0,4.9,0.7,8.8,2,11.5C425.9,125.6,428.7,127.4,433.1,128.3 M450.5,90.6 h-5.9c-4.1,0-7.8,0.2-11,0.7s-5.6,1.4-7.2,2.8c-1.6,1.4-2.7,2.9-3.2,4.7c-0.5,1.8-0.7,3.8-0.7,6.1h48.7c0-2.2-0.2-4.2-0.6-5.9 c-0.4-1.7-1.3-3.2-2.6-4.4c-1.3-1.2-3.3-2.1-6.1-2.9C459.2,91,455.4,90.6,450.5,90.6"></path> </g> <g> <defs> <rect id="SVGID_00000026872231262053922610000008014015148438446002_" x="-113.4" y="63.7" width="1008.2" height="72.2"></rect> </defs> <clipPath id="SVGID_00000153667739340407329640000003916430116864055936_"> <use xlink:href="#SVGID_00000026872231262053922610000008014015148438446002_" style="overflow:visible;"></use> </clipPath> <path style="clip-path:url(#SVGID_00000153667739340407329640000003916430116864055936_);fill:#00AEEF;" d="M499.8,95.2 c1.6-4.9,4.4-7.9,8.2-9.2c3.9-1.3,9-1.9,15.4-1.9h1c5.3,0,9.7,0.3,13.2,0.9s6.6,1.9,9.1,3.9s4.1,4.2,4.8,6.7s1,5.6,1,9.3v30.3 H545v-29.6c0-6.3-1.7-10.3-5-12.2c-3.4-1.8-8.6-2.7-15.6-2.7c-8.1,0-14.2,0.9-18.4,2.7c-4.2,1.8-6.3,6.3-6.3,13.3v28.4h-7.5 V84.8h7.5L499.8,95.2L499.8,95.2z"></path> </g> <g> <defs> <rect id="SVGID_00000034070899901230750870000006855841319418364048_" x="-113.4" y="63.7" width="1008.2" height="72.2"></rect> </defs> <clipPath id="SVGID_00000027577145610693034080000008858655274590710957_"> <use xlink:href="#SVGID_00000034070899901230750870000006855841319418364048_" style="overflow:visible;"></use> </clipPath> <path style="clip-path:url(#SVGID_00000027577145610693034080000008858655274590710957_);fill:#00AEEF;" d="M611.6,91.3h-34.8 v24.2c0,5.6,1,9.4,2.9,11.1c1.9,1.8,5.7,2.7,11.4,2.7c5.1,0,8.9-0.7,11.4-2c2.4-1.3,3.6-4.4,3.6-9.2v-6h6.9 c0,9.7-1.1,16.1-3.4,19.2c-2.2,3.1-8.1,4.7-17.6,4.7c-7.9,0-13.6-1-17.2-3.1c-3.6-2-5.4-6.7-5.4-13.9v-3.5V91.3h-12.2v-6.4 h12.2V73.5h7.5v11.4h34.8v6.4H611.6z"></path> </g> <g> <defs> <rect id="SVGID_00000014628581268166514780000013710603357494519468_" x="-113.4" y="63.7" width="1008.2" height="72.2"></rect> </defs> <clipPath id="SVGID_00000045617179619468607210000016776265554936576408_"> <use xlink:href="#SVGID_00000014628581268166514780000013710603357494519468_" style="overflow:visible;"></use> </clipPath> <path style="clip-path:url(#SVGID_00000045617179619468607210000016776265554936576408_);fill:#00AEEF;" d="M674.3,125.4 c-1.3,3.3-3.6,5.9-7,7.7c-3.4,1.9-8.7,2.8-16.1,2.8c-12.1,0-20.2-1.7-24-5c-3.9-3.4-5.8-8.3-5.8-14.9v-1.6V84.8h7.5v27.5 c0,7.4,1.6,12,4.7,14c3.1,2,8.6,2.9,16.4,2.9c8.2,0,14.3-1,18.3-2.9c4-2,6-6.6,6-14V84.8h7.5v50.3h-7.5L674.3,125.4 L674.3,125.4z"></path> </g> <g> <defs> <rect id="SVGID_00000054979672232419970280000000453896164845376439_" x="-113.4" y="63.7" width="1008.2" height="72.2"></rect> </defs> <clipPath id="SVGID_00000174560885374780360110000014050718017740826011_"> <use xlink:href="#SVGID_00000054979672232419970280000000453896164845376439_" style="overflow:visible;"></use> </clipPath> <path style="clip-path:url(#SVGID_00000174560885374780360110000014050718017740826011_);fill:#00AEEF;" d="M703.6,93.7 c1-3,2.9-5.4,5.8-7.1c2.9-1.7,7.6-2.6,14.2-2.6c9.5,0,16.2,1.2,20,3.6s5.7,8,5.7,16.8v2.3h-7.4c0-6.3-1-10.5-2.9-12.7 s-6.1-3.3-12.6-3.3h-2.6c-7.3,0-12.4,1-15.5,3.1c-3.1,2-4.6,6.4-4.6,13.2v28.2h-7.5V84.8h7.5v8.9H703.6z"></path> </g> <g> <defs> <rect id="SVGID_00000102531694267418815740000006895575526890181805_" x="-113.4" y="63.7" width="1008.2" height="72.2"></rect> </defs> <clipPath id="SVGID_00000065784787650576989580000015362625787400329899_"> <use xlink:href="#SVGID_00000102531694267418815740000006895575526890181805_" style="overflow:visible;"></use> </clipPath> <path style="clip-path:url(#SVGID_00000065784787650576989580000015362625787400329899_);fill:#00AEEF;" d="M774.1,128.3 c1.1,0.2,3,0.4,5.5,0.6c2.5,0.2,5.5,0.3,8.9,0.3h4.1c3.7,0,6.6-0.1,8.8-0.3c2.1-0.2,4.1-0.7,5.8-1.4c1.7-0.7,3-1.7,3.7-2.9 c0.8-1.2,1.2-2.7,1.4-4.5h7.9c0,6.6-2.7,10.9-8,12.9s-12.2,2.9-20.6,2.9c-9.2,0-16-0.4-20.5-1.2c-4.4-0.8-8.1-3-10.9-6.6 c-2.8-3.6-4.2-9.6-4.2-17.9c0-10.4,2-17.3,5.9-20.8c4-3.5,11.1-5.3,21.5-5.3h5.1c8.1,0,14.1,0.4,18.2,1.3s7.3,3.1,9.7,6.6 c2.4,3.5,3.6,9.1,3.6,16.8v2.6h-56.7c0,4.9,0.7,8.8,2,11.5C766.9,125.6,769.8,127.4,774.1,128.3 M791.6,90.6h-5.9 c-4.1,0-7.8,0.2-11,0.7s-5.6,1.4-7.2,2.8c-1.6,1.4-2.7,2.9-3.2,4.7c-0.5,1.8-0.7,3.8-0.7,6.1h48.7c0-2.2-0.2-4.2-0.6-5.9 c-0.4-1.7-1.3-3.2-2.6-4.4c-1.3-1.2-3.3-2.1-6.1-2.9C800.2,91,796.4,90.6,791.6,90.6"></path> </g> <g> <defs> <rect id="SVGID_00000064321339250887331600000009866442773386234515_" x="-113.4" y="63.7" width="1008.2" height="72.2"></rect> </defs> <clipPath id="SVGID_00000009583326591462442840000004439092835117881510_"> <use xlink:href="#SVGID_00000064321339250887331600000009866442773386234515_" style="overflow:visible;"></use> </clipPath> <path style="clip-path:url(#SVGID_00000009583326591462442840000004439092835117881510_);fill:#00AEEF;" d="M877.2,91.2 l-14.8-0.4c-3.1,0-5.7,0-7.7,0.1s-4.2,0.3-6.6,0.6c-2.5,0.4-4.4,1-5.9,2s-2.2,2.6-2.2,4.9c0,3.1,0.8,5.1,2.3,6.1 s3.9,1.4,7.2,1.4l13,0.3h14c6.2,0,10.8,1,13.8,2.9c3,2,4.5,5.8,4.5,11.6c0,6.6-1.8,10.8-5.3,12.5s-9,2.5-16.3,2.5l-14,0.2 c-4.3,0-7.5-0.1-9.8-0.2c-2.2-0.1-5-0.5-8.3-1.2s-5.8-2.1-7.3-4.4c-1.6-2.2-2.4-5.5-2.4-9.8l0.1-2.2h7.5l0.1,1.2 c0,3.4,0.7,5.8,2.1,7.1c1.4,1.3,3.9,2.1,7.5,2.5l13.2,0.4h2.2h1.9c4.4,0,8.4-0.2,11.9-0.6c3.5-0.4,5.8-1,7-1.9s1.8-2.5,1.8-4.9 c0-3.6-0.9-6-2.6-7.3c-1.8-1.3-4.6-1.9-8.4-1.9l-13.6-0.1h-13c-5.6,0-9.9-0.9-12.9-2.7c-2.9-1.8-4.4-5.4-4.4-10.7 c0-5,1.4-8.7,4.3-11s6.8-3.5,11.9-3.5l14.2-0.6c2.6,0,5.2,0,7.7,0.1c2.5,0,5.3,0.2,8.5,0.5c5.2,0,8.9,1.1,11.1,3.3 c2.2,2.2,3.3,5.8,3.3,11h-7.5c-0.3-2.9-0.9-4.8-2-5.7C882.4,92.2,880.3,91.5,877.2,91.2"></path> </g> <g> <defs> <rect id="SVGID_00000108991918259055765480000000585528057761865626_" x="-113.4" y="63.7" width="1008.2" height="72.2"></rect> </defs> <clipPath id="SVGID_00000002368771810061680790000000579917730151685306_"> <use xlink:href="#SVGID_00000108991918259055765480000000585528057761865626_" style="overflow:visible;"></use> </clipPath> </g> <g> <defs> <rect id="SVGID_00000182514210761225032810000006232034415278323120_" x="-113.4" y="63.7" width="1008.2" height="72.2"></rect> </defs> <clipPath id="SVGID_00000164502248028860141670000009254545337617309882_"> <use xlink:href="#SVGID_00000182514210761225032810000006232034415278323120_" style="overflow:visible;"></use> </clipPath> </g> </g> </g> </g> </g> <g id="Insurance_00000044135472113594396200000000697090050864385951_"> <g> <g> <defs> <rect id="SVGID_00000004527495050888847650000009722302077845650563_" x="32.8" y="63.8" width="933.5" height="72.2"></rect> </defs> <clipPath id="SVGID_00000148640250532198824580000006943953182153906866_"> <use xlink:href="#SVGID_00000004527495050888847650000009722302077845650563_" style="overflow:visible;"></use> </clipPath> <polygon style="clip-path:url(#SVGID_00000148640250532198824580000006943953182153906866_);fill:#939598;" points="118.3,63.8 118.3,71 154.3,71 154.3,135.1 163,135.1 163,71 199.2,71 199.2,63.8 "></polygon> </g> <g> <defs> <rect id="SVGID_00000055670476853231136350000005241229770815796909_" x="32.8" y="63.8" width="933.5" height="72.2"></rect> </defs> <clipPath id="SVGID_00000024693574813578824140000009792024983990077868_"> <use xlink:href="#SVGID_00000055670476853231136350000005241229770815796909_" style="overflow:visible;"></use> </clipPath> <g style="clip-path:url(#SVGID_00000024693574813578824140000009792024983990077868_);"> <g> <defs> <rect id="SVGID_00000075880643625871951600000012964719234665283505_" x="32.8" y="63.8" width="933.5" height="72.2"></rect> </defs> <clipPath id="SVGID_00000143605105852955766300000015815067573623288254_"> <use xlink:href="#SVGID_00000075880643625871951600000012964719234665283505_" style="overflow:visible;"></use> </clipPath> <path style="clip-path:url(#SVGID_00000143605105852955766300000015815067573623288254_);fill:#939598;" d="M285.8,84 c0,4.1-0.3,7.7-0.9,10.8s-1.7,5.6-3.4,7.3c-1.7,1.7-3.8,3-6.3,3.8c-2.5,0.8-6.2,1.2-11.2,1.2h-50v28h-8.7V63.8h59.2 c7.8,0,13.3,1.4,16.4,4.3C284.2,70.9,285.8,76.3,285.8,84 M276.8,84.5c0-5-0.9-8.5-2.8-10.5s-5.3-3-10.3-3H214v29h44.8 c7.1,0,11.9-0.9,14.4-2.7C275.5,95.5,276.8,91.3,276.8,84.5"></path> </g> <g> <defs> <rect id="SVGID_00000088120508655864481700000005332612437676592279_" x="32.8" y="63.8" width="933.5" height="72.2"></rect> </defs> <clipPath id="SVGID_00000132770313262283142210000009761657892482395013_"> <use xlink:href="#SVGID_00000088120508655864481700000005332612437676592279_" style="overflow:visible;"></use> </clipPath> <polygon style="clip-path:url(#SVGID_00000132770313262283142210000009761657892482395013_);fill:#939598;" points=" 362.7,135.1 297.5,135.1 297.5,63.8 306.2,63.8 306.2,128.1 362.7,128.1 "></polygon> </g> <g> <defs> <rect id="SVGID_00000146465320528811488470000003244791127568339844_" x="32.8" y="63.8" width="933.5" height="72.2"></rect> </defs> <clipPath id="SVGID_00000026849596359408834520000007737806921080362115_"> <use xlink:href="#SVGID_00000146465320528811488470000003244791127568339844_" style="overflow:visible;"></use> </clipPath> <rect x="371.5" y="63.8" style="clip-path:url(#SVGID_00000026849596359408834520000007737806921080362115_);fill:#F47920;" width="8.7" height="71.4"></rect> </g> <g> <defs> <rect id="SVGID_00000079465610039363084710000005081668871092685458_" x="32.8" y="63.8" width="933.5" height="72.2"></rect> </defs> <clipPath id="SVGID_00000070826135870320774180000012538645391064420514_"> <use xlink:href="#SVGID_00000079465610039363084710000005081668871092685458_" style="overflow:visible;"></use> </clipPath> <path style="clip-path:url(#SVGID_00000070826135870320774180000012538645391064420514_);fill:#F47920;" d="M403.6,95.2 c1.6-4.9,4.4-7.9,8.2-9.2c3.9-1.3,9-1.9,15.4-1.9h1c5.3,0,9.7,0.3,13.2,0.9s6.6,1.9,9.1,3.9s4.1,4.2,4.8,6.7 c0.7,2.5,1,5.6,1,9.3v30.3h-7.5v-29.6c0-6.3-1.7-10.3-5-12.2c-3.4-1.8-8.6-2.7-15.6-2.7c-8.1,0-14.2,0.9-18.4,2.7 c-4.2,1.8-6.3,6.3-6.3,13.3v28.4H396V84.8h7.5L403.6,95.2L403.6,95.2z"></path> </g> <g> <defs> <rect id="SVGID_00000075883301395475714190000003976026427012099517_" x="32.8" y="63.8" width="933.5" height="72.2"></rect> </defs> <clipPath id="SVGID_00000149352028612032454560000000943457726609940395_"> <use xlink:href="#SVGID_00000075883301395475714190000003976026427012099517_" style="overflow:visible;"></use> </clipPath> <path style="clip-path:url(#SVGID_00000149352028612032454560000000943457726609940395_);fill:#F47920;" d="M514.6,91.2 l-14.8-0.4c-3.1,0-5.7,0-7.7,0.1s-4.2,0.3-6.6,0.6c-2.5,0.4-4.4,1-5.9,2s-2.2,2.6-2.2,4.9c0,3.1,0.8,5.1,2.3,6.1 s3.9,1.4,7.2,1.4l13,0.3h14c6.2,0,10.8,1,13.8,2.9c3,2,4.5,5.8,4.5,11.6c0,6.6-1.8,10.8-5.3,12.5s-9,2.5-16.3,2.5l-14,0.2 c-4.3,0-7.5-0.1-9.8-0.2c-2.2-0.1-5-0.5-8.3-1.2s-5.8-2.1-7.3-4.4c-1.6-2.2-2.4-5.5-2.4-9.8l0.1-2.2h7.5l0.1,1.2 c0,3.4,0.7,5.8,2.1,7.1c1.4,1.3,3.9,2.1,7.5,2.5l13.2,0.4h2.2h1.9c4.4,0,8.4-0.2,11.9-0.6c3.5-0.4,5.8-1,7-1.9s1.8-2.5,1.8-4.9 c0-3.6-0.9-6-2.6-7.3c-1.8-1.3-4.6-1.9-8.4-1.9l-13.6-0.1h-13c-5.6,0-9.9-0.9-12.9-2.7c-2.9-1.8-4.4-5.4-4.4-10.7 c0-5,1.4-8.7,4.3-11c2.9-2.3,6.8-3.5,11.9-3.5l14.2-0.6c2.6,0,5.2,0,7.7,0.1c2.5,0,5.3,0.2,8.5,0.5c5.2,0,8.9,1.1,11.1,3.3 c2.2,2.2,3.3,5.8,3.3,11h-7.5c-0.3-2.9-0.9-4.8-2-5.7C519.9,92.2,517.8,91.5,514.6,91.2"></path> </g> <g> <defs> <rect id="SVGID_00000119111520322613215840000001449662962706378376_" x="32.8" y="63.8" width="933.5" height="72.2"></rect> </defs> <clipPath id="SVGID_00000116953538746559397980000009872071153547954584_"> <use xlink:href="#SVGID_00000119111520322613215840000001449662962706378376_" style="overflow:visible;"></use> </clipPath> <path style="clip-path:url(#SVGID_00000116953538746559397980000009872071153547954584_);fill:#F47920;" d="M597.6,125.4 c-1.3,3.3-3.6,5.9-7,7.7c-3.4,1.9-8.7,2.8-16.1,2.8c-12.1,0-20.2-1.7-24-5c-3.9-3.4-5.8-8.3-5.8-14.9v-1.6V84.8h7.5v27.5 c0,7.4,1.6,12,4.7,14c3.1,2,8.6,2.9,16.4,2.9c8.2,0,14.3-1,18.3-2.9c4-2,6-6.6,6-14V84.8h7.5v50.3h-7.5L597.6,125.4 L597.6,125.4z"></path> </g> <g> <defs> <rect id="SVGID_00000049900483596968741920000002741919293706769297_" x="32.8" y="63.8" width="933.5" height="72.2"></rect> </defs> <clipPath id="SVGID_00000159433498618963489090000011059781055089029541_"> <use xlink:href="#SVGID_00000049900483596968741920000002741919293706769297_" style="overflow:visible;"></use> </clipPath> <path style="clip-path:url(#SVGID_00000159433498618963489090000011059781055089029541_);fill:#F47920;" d="M626.9,93.8 c1-3,2.9-5.4,5.8-7.1c2.9-1.7,7.6-2.6,14.2-2.6c9.5,0,16.2,1.2,20,3.6c3.8,2.4,5.7,8,5.7,16.8v2.3h-7.5c0-6.3-1-10.5-2.9-12.7 c-2-2.2-6.1-3.3-12.6-3.3H647c-7.3,0-12.4,1-15.5,3.1c-3.1,2-4.6,6.4-4.6,13.2v28.2h-7.5V84.8h7.5L626.9,93.8L626.9,93.8z"></path> </g> <g> <defs> <rect id="SVGID_00000179646017193113293550000000731328106079790482_" x="32.8" y="63.8" width="933.5" height="72.2"></rect> </defs> <clipPath id="SVGID_00000075120843289334584610000007162642230234704259_"> <use xlink:href="#SVGID_00000179646017193113293550000000731328106079790482_" style="overflow:visible;"></use> </clipPath> <path style="clip-path:url(#SVGID_00000075120843289334584610000007162642230234704259_);fill:#F47920;" d="M732.5,129.2 c-1.3,2.2-2.8,3.8-4.7,4.7c-1.8,0.9-4.1,1.4-6.9,1.7l-13.8,0.3h-6.5c-8.9,0-14.7-1.3-17.6-3.8c-2.9-2.5-4.3-6.3-4.3-11.2 c0-5.4,1-9.2,3-11.5c2-2.2,4.8-3.5,8.4-3.9c3.6-0.4,6.8-0.6,9.6-0.6c2.8-0.1,5.4-0.1,7.8-0.1l14.1,0.4c2.6,0,4.6,0.4,6.2,1.2 c1.6,0.8,3.1,2.2,4.7,4.4v-5.4c0-3.1-0.3-5.6-0.7-7.7c-0.5-2-1.6-3.6-3.3-4.8c-1.7-1.1-4.6-1.8-8.7-2c-4.1-0.2-7.2-0.3-9.2-0.3 c-2.4,0-4.8,0-7.1,0.1c-2.3,0-4.8,0.2-7.4,0.6c-2.7,0.4-4.5,1.2-5.5,2.6c-1,1.4-1.5,3.4-1.5,6H681c0-5.4,1.2-9.1,3.5-11.2 c2.3-2.1,5.8-3.4,10.5-3.9s9-0.7,12.9-0.7c4.9,0,8.9,0.1,12.1,0.3c3.2,0.2,6.7,0.8,10.4,1.8s6.3,3,7.7,5.9 c1.4,3,2.1,6.9,2.1,11.7v31.4h-7.7V129.2z M707.2,129.2h2.1c3.6,0,6.9-0.1,9.6-0.3c2.8-0.2,5.7-0.7,8.8-1.6s4.7-3.3,4.7-7.3 c0-3.4-1.1-5.6-3.2-6.6c-2.1-1-4.4-1.6-6.9-1.8c-2.5-0.2-5.2-0.4-8.3-0.4l-6.6,0.1c-5.1,0-8.8,0.1-10.9,0.3 c-2.1,0.2-4,0.6-5.7,1.3c-1.7,0.6-2.9,1.6-3.4,2.9c-0.6,1.3-0.9,2.9-0.9,4.9c0,2.6,0.8,4.6,2.3,6s4.7,2.1,9.5,2.1L707.2,129.2z "></path> </g> <g> <defs> <rect id="SVGID_00000181061436983887038120000009644457675945749922_" x="32.8" y="63.8" width="933.5" height="72.2"></rect> </defs> <clipPath id="SVGID_00000109029296827808295970000013665079541575765141_"> <use xlink:href="#SVGID_00000181061436983887038120000009644457675945749922_" style="overflow:visible;"></use> </clipPath> <path style="clip-path:url(#SVGID_00000109029296827808295970000013665079541575765141_);fill:#F47920;" d="M762,95.2 c1.6-4.9,4.4-7.9,8.2-9.2c3.9-1.3,9-1.9,15.4-1.9h1c5.3,0,9.7,0.3,13.2,0.9s6.6,1.9,9.1,3.9s4.1,4.2,4.8,6.7s1,5.6,1,9.3v30.3 h-7.5v-29.6c0-6.3-1.7-10.3-5-12.2c-3.4-1.8-8.6-2.7-15.6-2.7c-8.1,0-14.2,0.9-18.4,2.7c-4.2,1.8-6.3,6.3-6.3,13.3v28.4h-7.4 V84.8h7.5V95.2z"></path> </g> <g> <defs> <rect id="SVGID_00000094594357077253996450000016821315322609386884_" x="32.8" y="63.8" width="933.5" height="72.2"></rect> </defs> <clipPath id="SVGID_00000010270931475073548410000006184308971787736214_"> <use xlink:href="#SVGID_00000094594357077253996450000016821315322609386884_" style="overflow:visible;"></use> </clipPath> <path style="clip-path:url(#SVGID_00000010270931475073548410000006184308971787736214_);fill:#F47920;" d="M867.7,135.8 l-8.4,0.1c-11.1,0-19.1-1.6-24-4.8c-5-3.2-7.4-10.1-7.4-20.6c0-4.1,0.2-7.5,0.5-10.1s1.4-5.3,3.2-8.2s4.8-5,8.9-6.3 c4.1-1.3,9-1.9,14.5-1.9l4.5,0.1c7.3,0,12.8,0.2,16.6,0.7s7.1,2,10.1,4.7c2.9,2.6,4.4,7,4.4,13h-7.8c0-2.3-0.4-4.2-1.1-5.7 c-0.7-1.5-1.8-2.7-3.3-3.5c-1.5-0.8-3.7-1.4-6.5-1.8c-2.9-0.4-6.5-0.6-11-0.6h-1.3c-5.2,0-8.8,0.1-10.9,0.4 c-2,0.3-4.2,0.9-6.6,1.9c-2.4,1-3.9,2.6-4.6,4.7c-0.7,2.1-1.1,4.1-1.2,5.8c-0.1,1.8-0.2,3.6-0.2,5.5v1.5c0,6.6,0.9,11,2.6,13.3 c1.7,2.3,4.1,3.7,7.1,4.2c3,0.5,5.7,0.8,8.2,0.9c2.5,0.1,5.2,0.2,8,0.2c1.6,0,3.4,0,5.6-0.1c2.2,0,5.4-0.6,9.6-1.6 c4.2-1,6.3-4.5,6.3-10.4h7.8c0,7.1-2,12-6.1,14.6C881.2,134.4,875.3,135.8,867.7,135.8"></path> </g> <g> <defs> <rect id="SVGID_00000118380783414742975600000001702695359622819504_" x="32.8" y="63.8" width="933.5" height="72.2"></rect> </defs> <clipPath id="SVGID_00000170256432141953257990000010603837471992372380_"> <use xlink:href="#SVGID_00000118380783414742975600000001702695359622819504_" style="overflow:visible;"></use> </clipPath> <path style="clip-path:url(#SVGID_00000170256432141953257990000010603837471992372380_);fill:#F47920;" d="M920.2,128.4 c1.1,0.2,3,0.4,5.5,0.6s5.5,0.3,8.9,0.3h4.1c3.7,0,6.6-0.1,8.8-0.3c2.1-0.2,4.1-0.7,5.8-1.4c1.7-0.7,3-1.7,3.7-2.9 c0.8-1.2,1.2-2.7,1.4-4.5h7.9c0,6.6-2.7,10.9-8,12.9s-12.2,2.9-20.6,2.9c-9.2,0-16-0.4-20.5-1.2c-4.4-0.8-8.1-3-10.9-6.6 c-2.8-3.6-4.2-9.6-4.2-17.9c0-10.4,2-17.3,5.9-20.8c4-3.5,11.1-5.3,21.5-5.3h5.1c8.1,0,14.1,0.4,18.2,1.3 c4.1,0.9,7.3,3.1,9.7,6.6s3.6,9.1,3.6,16.8v2.6h-56.7c0,4.9,0.7,8.8,2,11.5C913,125.5,915.8,127.3,920.2,128.4 M937.6,90.7 h-5.9c-4.1,0-7.8,0.2-11,0.7s-5.6,1.4-7.2,2.8c-1.6,1.4-2.7,2.9-3.2,4.7c-0.5,1.8-0.7,3.8-0.7,6.1h48.7c0-2.2-0.2-4.2-0.6-5.9 c-0.4-1.7-1.3-3.2-2.6-4.4c-1.3-1.2-3.3-2.1-6.1-2.9C946.3,90.9,942.5,90.7,937.6,90.7"></path> </g> <g> <defs> <rect id="SVGID_00000119084076318708395880000006747764110154900608_" x="32.8" y="63.8" width="933.5" height="72.2"></rect> </defs> <clipPath id="SVGID_00000041255881439921939260000010549077893864212643_"> <use xlink:href="#SVGID_00000119084076318708395880000006747764110154900608_" style="overflow:visible;"></use> </clipPath> <path style="clip-path:url(#SVGID_00000041255881439921939260000010549077893864212643_);fill-rule:evenodd;clip-rule:evenodd;fill:#939598;" d=" M64.9,75.8h13.4V63.8H64.9V75.8z M48.8,105.5h13.4V93.3H48.8V105.5z M32.8,105.5h13.4V93.3H32.8V105.5z M80.9,105.5h13.4V93.3 H80.9V105.5z M96.9,105.5h13.4V93.3H96.9V105.5z M80.9,120.3h13.4v-12.1H80.9V120.3z M48.8,120.3h13.4v-12.1H48.8V120.3z"></path> </g> <g> <defs> <rect id="SVGID_00000163775189248027269790000012182105796265700767_" x="32.8" y="63.8" width="933.5" height="72.2"></rect> </defs> <clipPath id="SVGID_00000082360185851022094710000012457662080395768728_"> <use xlink:href="#SVGID_00000163775189248027269790000012182105796265700767_" style="overflow:visible;"></use> </clipPath> <path style="clip-path:url(#SVGID_00000082360185851022094710000012457662080395768728_);fill-rule:evenodd;clip-rule:evenodd;fill:#F47920;" d=" M64.9,90.7h13.4V78.5H64.9V90.7z M48.8,90.7h13.4V78.5H48.8V90.7z M80.9,90.7h13.4V78.5H80.9V90.7z M64.9,105.5h13.4V93.3H64.9 V105.5z M64.9,120.3h13.4v-12.1H64.9V120.3z M64.9,135.1h13.4V123H64.9V135.1z"></path> </g> </g> </g> </g> </g> </svg> 